<svg xmlns="http://www.w3.org/2000/svg" viewBox="4 13 282 285"><circle cx="145" cy="156" r="140" fill="#ffffff"/><path fill-rule="evenodd" fill="#2563eb" d="M 164.94 169.33 L 167.95 173.47 L 170.95 179.7 L 173.95 192.34 L 173.77 199.53 L 170.91 211.53 L 169.05 213.47 L 166.91 218.69 L 164.81 220.77 L 161.38 220.38 L 161.33 217.06 L 163.95 213.53 L 166.95 207.3 L 169 195.94 L 166.91 183.47 L 163.91 176.31 L 162.05 174.53 L 161.05 172.06 L 161.19 169.94 L 162.31 169.06 Z M 155.95 176.33 L 159.95 181.47 L 161.95 187.41 L 162.77 197.72 L 160.91 206.53 L 158.91 210.69 L 155.53 213.95 L 154.09 213.77 L 152.09 211.16 L 154.67 207.95 L 155.09 205.47 L 156.77 202.77 L 157.84 197.44 L 157.77 192.28 L 155.91 185.31 L 152.05 179.3 L 152.23 177.14 L 153.05 176.33 Z M 145.95 179.33 L 147.77 183.22 L 147.56 208 L 146.77 209.53 L 142.08 209.67 L 136.53 204.05 L 134.16 202.91 L 124.53 193.05 L 122.44 192 L 121.77 205.78 L 120.36 209.72 L 117.47 209.69 L 116.44 208 L 116 197.31 L 117.08 184.97 L 118.17 183.28 L 121.77 183.23 L 129.47 190.95 L 131.84 192.09 L 137.47 197.95 L 139.84 199.09 L 141.56 201 L 142.44 180 L 143.05 179.33 Z M 140.94 147.16 L 136.63 148.09 L 128.16 153.09 L 123.05 158.47 L 115.91 169.84 L 114.05 171.47 L 112.91 173.84 L 94.16 192.09 L 91.05 196.47 L 87.23 204.28 L 86 210.88 L 86.77 212.28 L 87.09 217.06 L 90.09 224.69 L 97.47 231.95 L 101.7 233.95 L 108.47 235.77 L 117.06 235.84 L 136.89 230.23 L 153.22 230.16 L 175.34 235.95 L 186.38 234.91 L 192.69 231.91 L 199.95 224.53 L 202.77 218.72 L 203.91 209.63 L 203.16 208.53 L 202.77 204.23 L 200.91 199.31 L 199.05 197.53 L 197.91 194.31 L 176.05 172.53 L 174.91 170.16 L 173.05 168.53 L 171.91 165.31 L 169.05 162.53 L 167.91 159.31 L 160.91 152.16 L 156.95 149.33 L 149.53 147.23 Z M 70.09 124.33 L 66.16 126.09 L 62.05 130.47 L 59.23 138.56 L 59.16 148.88 L 61.09 156.53 L 64.09 162.69 L 67.09 166.84 L 73.47 172.95 L 79.42 175.77 L 87.16 175.84 L 91.69 173.91 L 95.95 168.53 L 97.77 162.48 L 97.84 153.03 L 95.91 144.63 L 92.91 138.31 L 88.05 132.53 L 87.56 131 L 82.53 127.05 L 75.91 124.33 Z M 214.09 124.33 L 207.31 127.09 L 203.09 130.47 L 202.91 131.69 L 200.16 134.09 L 195.05 142.7 L 192.05 155.34 L 192.44 163 L 194.09 168.53 L 197.09 172.84 L 202.42 175.77 L 210.16 175.84 L 213.53 174.91 L 217.84 171.91 L 222.84 166.91 L 225.95 162.53 L 228.95 156.3 L 230.77 149.39 L 230.84 138.22 L 227.91 130.31 L 223.91 126.16 L 219.91 124.33 Z M 110.75 79.16 L 107.47 80.09 L 102.05 85.47 L 98.23 94.33 L 97.16 101.66 L 97.23 107.67 L 99.09 117.38 L 104.09 127.69 L 109.47 133.95 L 117.33 137.77 L 123.89 137.67 L 127.84 135.91 L 132.95 130.53 L 135.95 121.59 L 136.84 116.34 L 136.77 110.33 L 133.91 97.47 L 129.91 89.31 L 127.05 86.53 L 125.91 84.16 L 117.63 79.23 Z M 172.75 79.16 L 168.31 81.09 L 163.05 85.47 L 161.91 87.84 L 160.05 89.47 L 156.05 97.7 L 153.05 111.88 L 153.23 117.63 L 156.09 128.69 L 161.09 134.84 L 166.38 137.77 L 173.25 137.84 L 179.69 134.91 L 187.95 124.53 L 191.95 112.59 L 192.95 105.89 L 192.77 99.42 L 190.91 91.47 L 187.91 85.31 L 183.91 81.16 L 179.63 79.23 Z M 151.59 39.16 L 171.38 42.09 L 184.53 46.09 L 187.7 47.95 L 195 50.44 L 196.47 51.95 L 201.69 54.09 L 203.95 56.47 L 203.77 57.91 L 197.05 65.7 L 195.05 72.41 L 194.09 79.53 L 194.95 81.41 L 195.09 85.06 L 198.09 92.69 L 200.47 95.91 L 201.69 96.19 L 202.09 97.69 L 210.19 103.77 L 213.38 104.09 L 217.42 105.77 L 225.16 105.84 L 234.69 102.91 L 237.47 100.05 L 239.84 98.91 L 242.47 96.05 L 243.91 96.47 L 249.95 108.7 L 253.95 118.94 L 254.09 121.38 L 255.95 126.17 L 258.77 143.31 L 258.84 167.38 L 255.91 185.38 L 252.91 195.53 L 244.91 212.69 L 243.05 214.47 L 241.91 217.69 L 237.05 223.47 L 233.91 228.84 L 230.05 232.47 L 228.91 234.84 L 222.53 240.95 L 220.16 242.09 L 215.53 246.95 L 205.53 253.95 L 202.31 255.09 L 200.53 256.95 L 180.3 265.95 L 169.59 268.95 L 157.69 270.77 L 133.63 270.84 L 125.28 269.77 L 109.47 265.91 L 106.3 264.05 L 101.47 262.91 L 87.31 255.91 L 85.53 254.05 L 77.16 248.91 L 75.53 247.05 L 73.16 245.91 L 69.53 242.05 L 67.16 240.91 L 60.05 233.53 L 58.91 231.16 L 55.05 227.53 L 53.91 225.16 L 52.05 223.53 L 46.05 214.53 L 37.05 195.06 L 36.91 192.63 L 33.16 181.63 L 30.05 157.89 L 32.23 134.33 L 35.09 121.63 L 36.95 118.3 L 39.09 110.47 L 47.09 94.31 L 48.95 92.53 L 52.09 87.16 L 53.95 85.53 L 55.09 83.16 L 56.84 81.91 L 59.09 78.16 L 72.47 65.05 L 74.84 63.91 L 76.09 62.16 L 80.47 59.05 L 83.69 57.91 L 86.47 55.05 L 107.94 45.05 L 122.33 41.23 L 141.52 39.05 Z M 132 37.16 L 118.28 39.23 L 102.47 44.09 L 91.31 49.09 L 89.3 50.95 L 87.47 51.09 L 84.53 53.95 L 81.31 55.09 L 79.53 56.95 L 74.16 60.09 L 72.91 61.84 L 69.16 64.09 L 55.16 78.09 L 45.05 92.47 L 42.91 97.69 L 41.05 99.47 L 38.91 105.69 L 37.16 108.19 L 33.05 118.94 L 28.23 143.27 L 28.16 166.47 L 31.09 185.38 L 36.09 200.53 L 41.09 211.69 L 42.95 213.47 L 45.09 218.69 L 49.95 224.47 L 53.09 229.84 L 56.95 233.47 L 58.09 235.84 L 65.09 242.84 L 67.91 244.47 L 68.19 245.69 L 69.69 246.09 L 72.09 248.84 L 78.84 253.09 L 80.47 254.95 L 83.69 256.09 L 85.47 257.95 L 88.69 259.09 L 90.47 260.95 L 101.7 265.95 L 113.17 269.95 L 126.88 272.95 L 134.17 273.77 L 155.66 273.84 L 165.63 272.77 L 186.53 266.91 L 193.7 263.05 L 199.69 260.91 L 201.47 259.05 L 204.69 257.91 L 206.47 256.05 L 209.69 254.91 L 217.84 248.91 L 222.47 244.05 L 224.84 242.91 L 230.84 236.91 L 232.47 234.09 L 233.69 233.81 L 234.09 232.31 L 236.84 229.91 L 241.09 223.16 L 242.95 221.53 L 244.09 218.31 L 245.95 216.53 L 248.09 211.31 L 249.95 209.3 L 251.09 205.31 L 252.95 203.3 L 255.09 195.47 L 256.95 192.06 L 257.09 189.63 L 258.95 185.06 L 261.77 169.55 L 261.84 142.91 L 259.77 129.23 L 253.91 110.47 L 250.05 103.3 L 248.91 99.31 L 245.53 94.09 L 243.3 93.05 L 241.14 93.23 L 235.53 98.95 L 229.77 101.77 L 223.13 102.95 L 213.63 101.91 L 209.31 99.91 L 202.05 93.53 L 200.91 90.31 L 199.05 88.3 L 197.23 82.58 L 197.16 74.84 L 201.09 64.31 L 204.84 60.91 L 206.95 57.3 L 206.77 55.14 L 198.95 49.33 L 194.31 47.91 L 192.3 46.05 L 190.47 45.91 L 187.3 44.05 L 170.59 39.05 L 159.5 37.23 Z M 224.89 68.33 L 227.84 70.09 L 230.95 73.7 L 231.95 77.41 L 231.77 81.72 L 227.91 86.84 L 222.59 88.95 L 218.28 88.77 L 213.16 84.91 L 211.23 81.67 L 211.33 75.11 L 215.09 70.16 L 218.33 68.23 Z M 218.11 65.33 L 212.09 68.47 L 211.91 69.69 L 210.05 71.47 L 208.05 77.17 L 208.23 80.77 L 210.09 85.69 L 214.47 89.95 L 220.17 91.95 L 223.77 91.77 L 228.69 89.91 L 231.84 86.91 L 233.95 83.06 L 235 78.25 L 233.91 73.47 L 231.81 69.31 L 230.31 68.91 L 228.53 67.05 L 224.67 65.23 Z M 156.38 17.16 L 180.77 21.23 L 192.53 25.09 L 213.69 35.09 L 215.47 36.95 L 226.84 44.09 L 228.47 45.95 L 230.84 47.09 L 234.47 50.95 L 236.84 52.09 L 247.95 63.47 L 249.09 65.84 L 250.84 67.09 L 258.09 77.84 L 259.95 79.47 L 261.09 82.69 L 262.95 84.47 L 265.09 89.69 L 266.95 91.47 L 269.09 97.69 L 270.84 100.19 L 274.95 110.94 L 278.84 125.47 L 281.77 145.08 L 281.84 164.84 L 280.77 175.58 L 276.91 193.38 L 271.91 208.53 L 264.91 222.69 L 263.05 224.47 L 260.91 229.69 L 256.05 235.47 L 252.91 240.84 L 251.16 242.09 L 248.91 245.84 L 232.53 261.95 L 230.16 263.09 L 228.91 264.84 L 222.16 269.09 L 220.53 270.95 L 217.31 272.09 L 212.53 275.95 L 196.3 283.95 L 185.06 287.95 L 168.59 291.95 L 149.78 293.95 L 126.47 292.77 L 115.23 290.77 L 101.47 286.91 L 91.31 282.91 L 77.31 275.91 L 75.53 274.05 L 72.31 272.91 L 70.53 271.05 L 65.16 267.91 L 63.53 266.05 L 61.16 264.91 L 59.91 263.16 L 56.16 260.91 L 39.05 243.53 L 29.05 229.53 L 27.91 226.31 L 26.05 224.53 L 18.05 208.3 L 14.05 197.06 L 10.05 180.83 L 8.23 166.83 L 8.16 145.34 L 11.23 124.23 L 15.09 110.47 L 25.09 87.31 L 26.95 85.53 L 28.09 82.31 L 29.95 80.53 L 33.09 75.16 L 34.95 73.53 L 36.09 71.16 L 37.95 69.53 L 39.09 67.16 L 40.84 65.91 L 43.09 62.16 L 54.47 51.05 L 56.84 49.91 L 60.09 46.16 L 69.84 39.91 L 71.47 38.05 L 74.69 36.91 L 76.47 35.05 L 94.7 26.05 L 106.94 22.05 L 132.31 17.23 Z"/></svg>
